<?xml version="1.0" standalone="no"?>
<!DOCTYPE svg PUBLIC "-//W3C//DTD SVG 1.0//EN" "http://www.w3.org/TR/2001/REC-SVG-20010904/DTD/svg10.dtd">
<svg xmlns="http://www.w3.org/2000/svg" xmlns:xlink="http://www.w3.org/1999/xlink" id="body_1" width="1024" height="768">

<g transform="matrix(1.5029354 0 0 1.5029354 127.999985 -0)">
	<g>
        <path d="M223 112.648L288 125.648L288 135.5L303 135.5L303 113.352L208 94.352L208 135.5L223 135.5L223 112.648" stroke="none" fill="#000000" fill-rule="nonzero" />
        <path d="M414.047 416L390.19598 241.095L303 225.241L303 201.624C 312.642 190.79099 318.213 177.21599 318.922 162.68399L318.922 162.68399L335 146.606L335 87.5C 335 65.72 317.28 48 295.5 48L295.5 48L215.5 48C 193.72 48 176 65.72 176 87.5L176 87.5L176 146.613L192.237 162.80301C 193.447 177.28601 199.206 190.451 208 200.751L208 200.751L208 225.24L120.804 241.09401L96.953 416L0 416L0 463L511 463L511 416L414.047 416zM152 416L117.742004 416L152 396.424L152 416zM223 213.682C 232.003 219.28601 242.432 222.63701 253.552 222.97101C 254.211 222.99101 254.867 223.001 255.523 223.001C 267.137 223.001 278.266 219.90001 288.001 214.074L288.001 214.074L288.001 227.254L255.501 246.754L223.001 227.254L223.001 213.682zM255.5 268L270.5 288L240.5 288L255.5 268zM288.846 288L325.09302 244.504L350.32 249.091L330.865 288L288.846 288zM180.135 288L160.68 249.09L185.907 244.50299L222.154 288L180.135 288zM167 303L344 303L344 416L167 416L167 303zM359 396.424L393.258 416L359 416L359 396.424zM396.83 400.765L359 379.147L359 288L347.635 288L365.69202 251.885L376.80402 253.90599L396.83 400.765zM308.137 241.421L279.81 275.413L266.49 257.65298L296.93698 239.38399L308.137 241.421zM206.925 156.266L191 140.387L191 87.5C 191 73.991 201.991 63 215.5 63L215.5 63L295.5 63C 309.009 63 320 73.991 320 87.5L320 87.5L320 140.394L304 156.394L304 159.5C 304 172.73 298.77 185.092 289.272 194.30899C 279.779 203.521 267.24402 208.36899 254.001 207.978C 228.71501 207.219 208.087 185.795 207.04001 159.206L207.04001 159.206L206.925 156.266zM214.063 239.384L244.51001 257.653L231.19 275.41302L202.863 241.42102L214.063 239.384zM134.196 253.906L145.308 251.88501L163.365 288L152 288L152 379.147L114.17 400.764L134.196 253.906zM496 448L15 448L15 431L94.908 431L152 431L159.5 431L351.5 431L359 431L416.092 431L496 431L496 448z" stroke="none" fill="#000000" fill-rule="nonzero" />
        <path d="M223.5 352L287.5 352L287.5 367L223.5 367z" stroke="none" fill="#000000" fill-rule="nonzero" />
	</g>
</g>
</svg>